<?xml version="1.0" encoding="UTF-8"?>
<svg width="2774" height="3824" style="background-color: white;" xmlns="http://www.w3.org/2000/svg">
    <defs>
        <style>
            .line {
                stroke-width: 4;
                stroke: black;
                fill: none;
            }

            .line-tech {
                stroke-width: 4;
                stroke: gray;
                fill: none;
            }

            .line-tech-help {
                stroke-dasharray: 1em 1em;
                stroke-width: 4;
                stroke: gray;
                fill: none;
            }

            .line-red {
                stroke-width: 4;
                stroke: red;
                fill: none;
            }

            .rect {
                stroke-width: 4;
                stroke: black;
                fill: none;
            }

            .rect-full {
                stroke-width: 4;
                stroke: black;
                fill: white;
            }

            .rect-tech-text {
                stroke-width: 0;
                stroke: none;
                fill: white;
                height: 48px;
                width: 192px;
                transform: translateX(-32px) translateY(-6px);
            }

            .circle {
                stroke-width: 4;
                stroke: black;
                fill: none;
            }

            .text-tech {
                fill: black;
                font-size: 40px;
                font-family: Arial, sans-serif;
                font-weight: bold;
                transform: translateY(8px);
            }

            .text-tech-desc {
                fill: gray;
                font-size: 16px;
                font-family: Arial, sans-serif;
            }

            .path {
                stroke-width: 4;
                stroke: black;
                fill: none;
            }

            .path-full {
                stroke-width: 4;
                stroke: black;
                fill: white;
            }
        </style>
        <marker id="arrow" markerWidth="10" markerHeight="10" refX="10" refY="5" orient="auto-start-reverse">
            <path d="M 0 0 L 10 5 L 0 10 z" fill="black" />
        </marker>
    </defs>

    <!-- Podłoga -->
    <line class="line" x1="0" y1="3312" x2="2774" y2="3312" />

    <!-- Ościeżnica -->
    <rect class="rect" width="1750" height="2800" x="512" y="512" rx="0" ry="0" />
    <rect class="rect" width="1550" height="2700" x="612" y="612" rx="0" ry="0" />
    <line class="line" x1="512" y1="512" x2="612" y2="612" />
    <line class="line" x1="2262" y1="512" x2="2162" y2="612" />

    <!-- Strefa okienna górna -->
    <rect class="rect" width="1450" height="450" x="662" y="642" rx="0" ry="0" />

    <!-- Okna górne lewe -->
    <rect class="rect" width="170" height="360" x="702" y="692" rx="0" ry="0" />
    <line class="line" x1="702" y1="692" x2="712" y2="702" />
    <line class="line" x1="872" y1="692" x2="862" y2="702" />
    <line class="line" x1="702" y1="1052" x2="712" y2="1042" />
    <line class="line" x1="872" y1="1052" x2="862" y2="1042" />
    <rect class="rect" width="150" height="340" x="712" y="702" rx="0" ry="0" />

    <!-- Okna górne środkowe -->
    <rect class="rect" width="880" height="360" x="947" y="692" rx="0" ry="0" />
    <line class="line" x1="947" y1="692" x2="957" y2="702" />
    <line class="line" x1="1827" y1="692" x2="1817" y2="702" />
    <line class="line" x1="947" y1="1052" x2="957" y2="1042" />
    <line class="line" x1="1827" y1="1052" x2="1817" y2="1042" />
    <rect class="rect" width="860" height="340" x="957" y="702" rx="0" ry="0" />

    <!-- Okna górne prawe -->
    <rect class="rect" width="170" height="360" x="1902" y="692" rx="0" ry="0" />
    <line class="line" x1="1902" y1="692" x2="1912" y2="702" />
    <line class="line" x1="2072" y1="692" x2="2062" y2="702" />
    <line class="line" x1="1902" y1="1052" x2="1912" y2="1042" />
    <line class="line" x1="2072" y1="1052" x2="2062" y2="1042" />
    <rect class="rect" width="150" height="340" x="1912" y="702" rx="0" ry="0" />

    <!-- Listwa nad skrzydłami -->
    <rect class="rect" width="1550" height="50" x="612" y="1092" rx="0" ry="0" />

    <!-- Lewe skrzydło drzwiowe -->
    <rect class="rect" width="245" height="2170" x="662" y="1142" rx="0" ry="0" />
    <!-- Listwa dolna -->
    <line class="line" x1="662" y1="3152" x2="887" y2="3152" />
    <line class="line" x1="662" y1="3162" x2="887" y2="3162" />
    <!-- Zawias górny -->
    <rect class="rect" width="20" height="60" x="637" y="1292" rx="0" ry="0" />
    <rect class="rect" width="14" height="10" x="640" y="1352" rx="0" ry="0" />
    <rect class="rect" width="20" height="60" x="637" y="1362" rx="0" ry="0" />
    <circle class="circle" r="6" cx="647" cy="1376" />
    <circle class="circle" r="6" cx="647" cy="1392" />
    <!-- Zawias środkowy -->
    <rect class="rect" width="20" height="60" x="637" y="2162" rx="0" ry="0" />
    <rect class="rect" width="14" height="10" x="640" y="2222" rx="0" ry="0" />
    <rect class="rect" width="20" height="60" x="637" y="2232" rx="0" ry="0" />
    <circle class="circle" r="6" cx="647" cy="2246" />
    <circle class="circle" r="6" cx="647" cy="2262" />
    <!-- Zawias dolny -->
    <rect class="rect" width="20" height="60" x="637" y="3032" rx="0" ry="0" />
    <rect class="rect" width="14" height="10" x="640" y="3092" rx="0" ry="0" />
    <rect class="rect" width="20" height="60" x="637" y="3102" rx="0" ry="0" />
    <circle class="circle" r="6" cx="647" cy="3116" />
    <circle class="circle" r="6" cx="647" cy="3132" />

    <!-- Prawe skrzydło drzwiowe -->
    <rect class="rect" width="245" height="2170" x="1867" y="1142" rx="0" ry="0" />
    <rect class="rect" width="20" height="2170" x="1867" y="1142" rx="0" ry="0" />
    <!-- Listwa dolna -->
    <line class="line" x1="1887" y1="3152" x2="2112" y2="3152" />
    <line class="line" x1="1887" y1="3162" x2="2112" y2="3162" />
    <!-- Zawias górny -->
    <rect class="rect" width="20" height="60" x="2117" y="1292" rx="0" ry="0" />
    <rect class="rect" width="14" height="10" x="2120" y="1352" rx="0" ry="0" />
    <rect class="rect" width="20" height="60" x="2117" y="1362" rx="0" ry="0" />
    <circle class="circle" r="6" cx="2127" cy="1376" />
    <circle class="circle" r="6" cx="2127" cy="1392" />
    <!-- Zawias środkowy -->
    <rect class="rect" width="20" height="60" x="2117" y="2162" rx="0" ry="0" />
    <rect class="rect" width="14" height="10" x="2120" y="2222" rx="0" ry="0" />
    <rect class="rect" width="20" height="60" x="2117" y="2232" rx="0" ry="0" />
    <circle class="circle" r="6" cx="2127" cy="2246" />
    <circle class="circle" r="6" cx="2127" cy="2262" />
    <!-- Zawias dolny -->
    <rect class="rect" width="20" height="60" x="2117" y="3032" rx="0" ry="0" />
    <rect class="rect" width="14" height="10" x="2120" y="3092" rx="0" ry="0" />
    <rect class="rect" width="20" height="60" x="2117" y="3102" rx="0" ry="0" />
    <circle class="circle" r="6" cx="2127" cy="3116" />
    <circle class="circle" r="6" cx="2127" cy="3132" />

    <!-- Centralne skrzydło drzwiowe -->
    <rect class="rect" width="940" height="2170" x="907" y="1142" rx="0" ry="0" />
    <rect class="rect-full" width="40" height="2170" x="887" y="1142" rx="0" ry="0" />
    <!-- Listwa dolna -->
    <line class="line" x1="927" y1="3152" x2="1847" y2="3152" />
    <line class="line" x1="927" y1="3162" x2="1847" y2="3162" />
    <!-- Rama okienna -->
    <rect class="rect" width="640" height="700" x="1057" y="1302" rx="0" ry="0" />
    <line class="line" x1="1057" y1="1302" x2="1077" y2="1322" />
    <line class="line" x1="1697" y1="1302" x2="1677" y2="1322" />
    <line class="line" x1="1057" y1="2002" x2="1077" y2="1982" />
    <line class="line" x1="1697" y1="2002" x2="1677" y2="1982" />
    <rect class="rect" width="600" height="660" x="1077" y="1322" rx="0" ry="0" />
    <line class="line" x1="1077" y1="1322" x2="1087" y2="1332" />
    <line class="line" x1="1677" y1="1322" x2="1667" y2="1332" />
    <line class="line" x1="1077" y1="1982" x2="1087" y2="1972" />
    <line class="line" x1="1677" y1="1982" x2="1667" y2="1972" />
    <rect class="rect" width="580" height="640" x="1087" y="1332" rx="0" ry="0" />
    <!-- Szyby -->
    <g>
        <line class="line" x1="1272" y1="1384" x2="1184" y2="1384" />
        <line class="line" x1="1272" y1="1384" x2="1272" y2="1544" />
        <line class="line" x1="1138" y1="1544" x2="1272" y2="1544" />
        <line class="line" x1="1138" y1="1464" x2="1138" y2="1544" />
        <line class="line" x1="1184" y1="1384" x2="1184" y2="1394" />
        <path class="path" d="M 1138 1464 Q 1161 1464, 1161 1429 Q 1161 1394, 1184 1394" />
    </g>
    <rect class="rect" width="134" height="160" x="1310" y="1384" rx="0" ry="0" />
    <g>
        <line class="line" x1="1482" y1="1384" x2="1570" y2="1384" />
        <line class="line" x1="1482" y1="1384" x2="1482" y2="1544" />
        <line class="line" x1="1482" y1="1544" x2="1616" y2="1544" />
        <line class="line" x1="1616" y1="1464" x2="1616" y2="1544" />
        <line class="line" x1="1570" y1="1384" x2="1570" y2="1394" />
        <path class="path" d="M 1616 1464 Q 1593 1464, 1593 1429 Q 1593 1394, 1570 1394" />
    </g>
    <rect class="rect" width="134" height="160" x="1138" y="1572" rx="0" ry="0" />
    <rect class="rect" width="134" height="160" x="1310" y="1572" rx="0" ry="0" />
    <rect class="rect" width="134" height="160" x="1482" y="1572" rx="0" ry="0" />
    <g>
        <line class="line" x1="1272" y1="1920" x2="1184" y2="1920" />
        <line class="line" x1="1272" y1="1760" x2="1272" y2="1920" />
        <line class="line" x1="1138" y1="1760" x2="1272" y2="1760" />
        <line class="line" x1="1138" y1="1760" x2="1138" y2="1840" />
        <line class="line" x1="1184" y1="1920" x2="1184" y2="1910" />
        <path class="path" d="M 1138 1840 Q 1161 1840, 1161 1875 Q 1161 1910, 1184 1910" />
    </g>
    <rect class="rect" width="134" height="160" x="1310" y="1760" rx="0" ry="0" />
    <g>
        <line class="line" x1="1482" y1="1920" x2="1570" y2="1920" />
        <line class="line" x1="1482" y1="1760" x2="1482" y2="1920" />
        <line class="line" x1="1482" y1="1760" x2="1616" y2="1760" />
        <line class="line" x1="1616" y1="1760" x2="1616" y2="1840" />
        <line class="line" x1="1570" y1="1920" x2="1570" y2="1910" />
        <path class="path" d="M 1616 1840 Q 1593 1840, 1593 1875 Q 1593 1910, 1570 1910" />
    </g>
    <!-- Rama dekoracyjna -->
    <rect class="rect" width="640" height="940" x="1057" y="2162" rx="0" ry="0" />
    <line class="line" x1="1057" y1="2162" x2="1077" y2="2182" />
    <line class="line" x1="1697" y1="2162" x2="1677" y2="2182" />
    <line class="line" x1="1057" y1="3102" x2="1077" y2="3082" />
    <line class="line" x1="1697" y1="3102" x2="1677" y2="3082" />
    <rect class="rect" width="600" height="900" x="1077" y="2182" rx="0" ry="0" />
    <line class="line" x1="1077" y1="2182" x2="1087" y2="2192" />
    <line class="line" x1="1677" y1="2182" x2="1667" y2="2192" />
    <line class="line" x1="1077" y1="3082" x2="1087" y2="3072" />
    <line class="line" x1="1677" y1="3082" x2="1667" y2="3072" />
    <rect class="rect" width="580" height="880" x="1087" y="2192" rx="0" ry="0" />
    <!-- Klamka -->
    <path class="path" d="M 931 2202 C 936 2182, 956 2182, 961 2202" />
    <line class="line" x1="931" y1="2202" x2="931" y2="2382" />
    <line class="line" x1="961" y1="2202" x2="961" y2="2382" />
    <path class="path" d="M 931 2382 C 936 2402, 956 2402, 961 2382" />
    <circle class="circle" r="3" cx="946" cy="2197" />
    <circle class="circle" r="3" cx="946" cy="2387" />
    <path class="path-full"
        d="M 946 2277 C 931 2277, 931 2257, 946 2257 Q 961 2257, 966 2262 Q 991 2267, 1016 2259 C 1031 2259, 1031 2275, 1016 2275 Q 991 2267, 966 2272 Q 961 2277, 946 2277 Z" />
    <path class="path"
        d="M 941 2345 Q 938 2341, 938 2337 Q 946 2325, 954 2337 Q 954 2341, 951 2345 L951 2358 Q 946 2367, 941 2358 L941 2345 Z" />
    <!-- Zawias górny -->
    <rect class="rect" width="14" height="15" x="1850" y="1322" rx="0" ry="0" />
    <rect class="rect" width="14" height="30" x="1850" y="1337" rx="0" ry="0" />
    <rect class="rect" width="14" height="15" x="1850" y="1367" rx="0" ry="0" />
    <rect class="rect" width="14" height="30" x="1850" y="1382" rx="0" ry="0" />
    <rect class="rect" width="14" height="15" x="1850" y="1412" rx="0" ry="0" />
    <!-- Zawias środkowy -->
    <rect class="rect" width="14" height="15" x="1850" y="2175" rx="0" ry="0" />
    <rect class="rect" width="14" height="30" x="1850" y="2190" rx="0" ry="0" />
    <rect class="rect" width="14" height="15" x="1850" y="2220" rx="0" ry="0" />
    <rect class="rect" width="14" height="30" x="1850" y="2235" rx="0" ry="0" />
    <rect class="rect" width="14" height="15" x="1850" y="2265" rx="0" ry="0" />
    <!-- Zawias dolny -->
    <rect class="rect" width="14" height="15" x="1850" y="3027" rx="0" ry="0" />
    <rect class="rect" width="14" height="30" x="1850" y="3042" rx="0" ry="0" />
    <rect class="rect" width="14" height="15" x="1850" y="3072" rx="0" ry="0" />
    <rect class="rect" width="14" height="30" x="1850" y="3087" rx="0" ry="0" />
    <rect class="rect" width="14" height="15" x="1850" y="3117" rx="0" ry="0" />

    <!-- Szerokość ościeżnicy -->
    <line class="line-tech-help" x1="512" y1="512" x2="512" y2="246" />
    <line class="line-tech-help" x1="2262" y1="512" x2="2262" y2="246" />
    <line class="line-tech" x1="512" y1="256" x2="2262" y2="256" marker-start="url(#arrow)" marker-end="url(#arrow)" />
    <rect class="rect-tech-text" width="128" height="32" x="1323" y="240" rx="0" ry="0" />
    <text class="text-tech" x="1387" y="264" text-anchor="middle">1750 mm</text>

    <!-- Szerokość centralnego skrzydła drzwiowego -->
    <line class="line-tech-help" x1="887" y1="3312" x2="887" y2="3578" />
    <line class="line-tech-help" x1="1847" y1="3312" x2="1847" y2="3578" />
    <line class="line-tech" x1="887" y1="3568" x2="1847" y2="3568" marker-start="url(#arrow)"
        marker-end="url(#arrow)" />
    <rect class="rect-tech-text" width="128" height="32" x="1303" y="3552" rx="0" ry="0" />
    <text class="text-tech" x="1367" y="3576" text-anchor="middle">960 mm</text>

    <!-- Szerokość szyb centralnego skrzydła drzwiowego -->
    <line class="line-tech-help" x1="1138" y1="1840" x2="1138" y2="3450" />
    <line class="line-tech-help" x1="1616" y1="1840" x2="1616" y2="3450" />
    <line class="line-tech" x1="1138" y1="3440" x2="1616" y2="3440" marker-start="url(#arrow)"
        marker-end="url(#arrow)" />
    <rect class="rect-tech-text" width="128" height="32" x="1303" y="3424" rx="0" ry="0" />
    <text class="text-tech" x="1367" y="3448" text-anchor="middle">475 mm</text>

    <!-- Wysokość ościeżnicy -->
    <line class="line-tech-help" x1="2062" y1="512" x2="2654" y2="512" />
    <line class="line-tech-help" x1="2062" y1="3312" x2="2654" y2="3312" />
    <line class="line-tech" x1="2644" y1="512" x2="2644" y2="3312" marker-start="url(#arrow)"
        marker-end="url(#arrow)" />
    <rect class="rect-tech-text" width="128" height="32" x="2580" y="1999" rx="0" ry="0" />
    <text class="text-tech" x="2644" y="2023" text-anchor="middle">2800 mm</text>

    <!-- Wysokość skrzydeł drzwiowych -->
    <line class="line-tech-help" x1="612" y1="1142" x2="274" y2="1142" />
    <line class="line-tech-help" x1="612" y1="3312" x2="274" y2="3312" />
    <line class="line-tech" x1="284" y1="1142" x2="284" y2="3312" marker-start="url(#arrow)" marker-end="url(#arrow)" />
    <rect class="rect-tech-text" width="128" height="32" x="220" y="2314" rx="0" ry="0" />
    <text class="text-tech" x="284" y="2338" text-anchor="middle">2170 mm</text>

    <!-- Wysokość szyb górnych -->
    <line class="line-tech-help" x1="2062" y1="702" x2="2462" y2="702" />
    <line class="line-tech-help" x1="2062" y1="1042" x2="2462" y2="1042" />
    <line class="line-tech" x1="2452" y1="702" x2="2452" y2="1042" marker-start="url(#arrow)"
        marker-end="url(#arrow)" />
    <rect class="rect-tech-text" width="128" height="32" x="2388" y="864" rx="0" ry="0" />
    <text class="text-tech" x="2452" y="888" text-anchor="middle">340 mm</text>

    <!-- Wysokość szyb centralnego skrzydła drzwiowego -->
    <line class="line-tech-help" x1="1570" y1="1384" x2="2462" y2="1384" />
    <line class="line-tech-help" x1="1570" y1="1920" x2="2462" y2="1920" />
    <line class="line-tech" x1="2452" y1="1384" x2="2452" y2="1920" marker-start="url(#arrow)"
        marker-end="url(#arrow)" />
    <rect class="rect-tech-text" width="128" height="32" x="2388" y="1644" rx="0" ry="0" />
    <text class="text-tech" x="2452" y="1668" text-anchor="middle">535 mm</text>
</svg>
